HIERARCHY
ROOT joint_Root
{
	OFFSET 0.0 0.0 0.0
	CHANNELS 6 Xposition Yposition Zposition Zrotation Xrotation Yrotation 
	JOINT Hips
	{
		OFFSET -17.1583 93.1646 452.98
		CHANNELS 6 Xposition Yposition Zposition Zrotation Xrotation Yrotation 
		JOINT Spine
		{
			OFFSET 15.7357 0.0 0.0
			CHANNELS 6 Xposition Yposition Zposition Zrotation Xrotation Yrotation 
			JOINT Chest
			{
				OFFSET 8.98455 -0.406207 0.0
				CHANNELS 6 Xposition Yposition Zposition Zrotation Xrotation Yrotation 
				JOINT Neck
				{
					OFFSET 16.3773 0.0 0.0
					CHANNELS 6 Xposition Yposition Zposition Zrotation Xrotation Yrotation 
					JOINT Head
					{
						OFFSET 6.45672 0.0 0.0
						CHANNELS 6 Xposition Yposition Zposition Zrotation Xrotation Yrotation 
						End Site
						{
							OFFSET 0.0 0.0 0.0
						}
					}
				}
				JOINT Shoulder_L
				{
					OFFSET 12.9942 -0.242716 4.98039
					CHANNELS 6 Xposition Yposition Zposition Zrotation Xrotation Yrotation 
					JOINT UpperArm_L
					{
						OFFSET 5.34809 0.0 0.0
						CHANNELS 6 Xposition Yposition Zposition Zrotation Xrotation Yrotation 
						JOINT LowerArm_L
						{
							OFFSET 24.3286 1.87007e-05 0.0
							CHANNELS 6 Xposition Yposition Zposition Zrotation Xrotation Yrotation 
							JOINT Hand_L
							{
								OFFSET 22.2916 0.0 0.0
								CHANNELS 6 Xposition Yposition Zposition Zrotation Xrotation Yrotation 
								End Site
								{
									OFFSET 0.0 0.0 0.0
								}
							}
						}
					}
				}
				JOINT Shoulder_R
				{
					OFFSET 12.9945 -0.242716 -4.98039
					CHANNELS 6 Xposition Yposition Zposition Zrotation Xrotation Yrotation 
					JOINT UpperArm_R
					{
						OFFSET -5.34813 0.0 0.0
						CHANNELS 6 Xposition Yposition Zposition Zrotation Xrotation Yrotation 
						JOINT LowerArm_R
						{
							OFFSET -24.3289 0.000322201 0.0
							CHANNELS 6 Xposition Yposition Zposition Zrotation Xrotation Yrotation 
							JOINT Hand_R
							{
								OFFSET -22.2915 -0.000108084 0.0
								CHANNELS 6 Xposition Yposition Zposition Zrotation Xrotation Yrotation 
								End Site
								{
									OFFSET 0.0 0.0 0.0
								}
							}
						}
					}
				}
			}
		}
		JOINT UpperLeg_L
		{
			OFFSET -2.19248 -6.46944 0.0
			CHANNELS 6 Xposition Yposition Zposition Zrotation Xrotation Yrotation 
			JOINT LowerLeg_L
			{
				OFFSET 39.0811 0.0 -1.23785e-05
				CHANNELS 6 Xposition Yposition Zposition Zrotation Xrotation Yrotation 
				JOINT Foot_L
				{
					OFFSET 40.9854 0.0 -1.26872e-05
					CHANNELS 6 Xposition Yposition Zposition Zrotation Xrotation Yrotation 
					JOINT Toes_L
					{
						OFFSET 11.7543 0.0 0.0
						CHANNELS 6 Xposition Yposition Zposition Zrotation Xrotation Yrotation 
						End Site
						{
							OFFSET 0.0 0.0 0.0
						}
					}
				}
			}
		}
		JOINT UpperLeg_R
		{
			OFFSET -2.19251 6.46944 0.0
			CHANNELS 6 Xposition Yposition Zposition Zrotation Xrotation Yrotation 
			JOINT LowerLeg_R
			{
				OFFSET -39.0811 -0.00228153 -0.0401928
				CHANNELS 6 Xposition Yposition Zposition Zrotation Xrotation Yrotation 
				JOINT Foot_R
				{
					OFFSET -40.9854 0.0 0.0
					CHANNELS 6 Xposition Yposition Zposition Zrotation Xrotation Yrotation 
					JOINT Toes_R
					{
						OFFSET -11.7543 0.0 0.0
						CHANNELS 6 Xposition Yposition Zposition Zrotation Xrotation Yrotation 
						End Site
						{
							OFFSET 0.0 0.0 0.0
						}
					}
				}
			}
		}
	}
}
MOTION
Frames:	8
Frame Time:	0.0333333
0.000000 0.000000 0.000000 0.000000 0.000000 -0.000000 -4.730820 91.642500 -0.722393 83.174900 -1.285210 2.766770 15.735700 0.000005 -0.000001 90.617200 87.621600 -87.273400 8.984550 -0.406207 -0.000000 -2.993140 -0.262461 6.681570 16.377300 -0.000001 -0.000001 10.109700 2.025690 -8.412360 6.456720 -0.000001 -0.000000 5.756960 -0.573668 -23.587300 12.994200 -0.242716 4.980390 -93.006900 8.444260 -70.317500 5.348090 -0.000007 -0.000001 -73.372700 6.140460 0.240759 24.328600 0.000019 0.000005 39.238200 -42.005100 -129.331000 22.291600 -0.000001 0.000005 46.426600 4.979590 7.748510 12.994500 -0.242716 -4.980390 88.456700 4.576540 -71.341900 -5.348130 -0.000001 -0.000004 -70.800000 30.072800 -3.220430 -24.328900 0.000322 -0.000009 2.257880 7.685730 -16.433300 -22.291500 -0.000108 -0.000004 1.703900 5.251410 1.395410 -2.192480 -6.469440 -0.000000 -169.930000 2.340460 -5.922680 39.081100 -0.000007 -0.000012 0.436318 -0.754568 30.039200 40.985400 -0.000006 -0.000013 -0.387353 7.190110 -77.381500 11.754300 -0.000000 0.000003 0.000254 0.163230 -9.956490 -2.192510 6.469440 -0.000001 -167.555000 6.594920 -177.843000 -39.081100 -0.002282 -0.040193 0.126552 -0.448032 15.378000 -40.985400 0.000008 0.000006 6.324150 -0.097061 -71.062700 -11.754300 -0.000006 -0.000006 -0.012570 0.289601 -4.801990
0.000000 0.000000 0.000000 0.000000 0.000000 -0.000000 -4.689570 91.649300 -0.745458 83.177500 -1.235630 2.806780 15.735700 0.000005 -0.000001 90.595700 87.600100 -87.237600 8.984550 -0.406207 -0.000000 -2.949810 -0.263864 6.710230 16.377300 -0.000001 -0.000001 10.126000 2.013530 -8.386020 6.456720 -0.000001 -0.000000 5.717230 -0.566238 -23.535300 12.994200 -0.242716 4.980390 -92.992600 8.407990 -70.326900 5.348090 -0.000007 -0.000001 -73.423500 6.184310 0.242450 24.328600 0.000019 0.000005 39.622500 -42.245600 -129.078000 22.291600 -0.000001 0.000005 46.547100 4.959740 8.155650 12.994500 -0.242716 -4.980390 88.451600 4.600870 -71.377100 -5.348130 -0.000001 -0.000004 -70.788600 30.011800 -3.152230 -24.328900 0.000322 -0.000009 2.259350 7.677710 -16.459600 -22.291500 -0.000108 -0.000004 1.674540 5.253850 1.330830 -2.192480 -6.469440 -0.000000 -169.965000 2.363270 -5.913530 39.081100 -0.000007 -0.000012 0.436044 -0.754088 30.039400 40.985400 -0.000006 -0.000013 -0.360843 7.182410 -77.379700 11.754300 -0.000000 0.000003 0.000224 0.163756 -9.935140 -2.192510 6.469440 -0.000001 -167.579000 6.593690 -177.817000 -39.081100 -0.002282 -0.040193 0.125787 -0.445923 15.355900 -40.985400 0.000008 0.000006 6.322390 -0.139707 -71.012200 -11.754300 -0.000006 -0.000006 -0.012181 0.286937 -4.911140
0.000000 0.000000 0.000000 0.000000 0.000000 -0.000000 -4.656550 91.654200 -0.767169 83.170900 -1.197720 2.829880 15.735700 0.000005 -0.000001 90.525100 87.583300 -87.142800 8.984550 -0.406207 -0.000000 -2.915780 -0.270720 6.758330 16.377300 -0.000001 -0.000001 10.144400 2.001160 -8.375460 6.456720 -0.000001 -0.000000 5.665160 -0.523088 -23.505700 12.994200 -0.242716 4.980390 -92.997000 8.414570 -70.313900 5.348090 -0.000007 -0.000001 -73.448100 6.107980 0.248035 24.328600 0.000019 0.000005 39.601700 -42.244900 -129.098000 22.291600 -0.000001 0.000005 46.654800 4.966350 8.026850 12.994500 -0.242716 -4.980390 88.453000 4.595990 -71.374600 -5.348130 -0.000001 -0.000004 -70.742000 30.062500 -3.187420 -24.328900 0.000322 -0.000009 2.263190 7.708410 -16.424300 -22.291500 -0.000108 -0.000004 1.752460 5.251820 1.384470 -2.192480 -6.469440 -0.000000 -169.977000 2.384890 -5.910860 39.081100 -0.000007 -0.000012 0.434745 -0.752027 30.033300 40.985400 -0.000006 -0.000013 -0.329283 7.216720 -77.336800 11.754300 -0.000000 0.000003 0.000261 0.163103 -9.961650 -2.192510 6.469440 -0.000001 -167.598000 6.629160 -177.822000 -39.081100 -0.002282 -0.040193 0.125790 -0.445648 15.365300 -40.985400 0.000008 0.000006 6.310500 -0.155438 -71.017200 -11.754300 -0.000006 -0.000006 -0.012215 0.287175 -4.901400
0.000000 0.000000 0.000000 0.000000 0.000000 -0.000000 -4.610620 91.659800 -0.781983 83.208300 -1.128620 2.846150 15.735700 0.000005 -0.000001 90.672200 87.571500 -87.287300 8.984550 -0.406207 -0.000000 -2.892750 -0.257603 6.764040 16.377300 -0.000001 -0.000001 10.203800 2.014530 -8.356060 6.456720 -0.000001 -0.000000 5.621960 -0.544212 -23.437800 12.994200 -0.242716 4.980390 -92.999000 8.411980 -70.296200 5.348090 -0.000007 -0.000001 -73.449800 6.094600 0.173673 24.328600 0.000019 0.000005 39.558000 -42.213600 -129.125000 22.291600 -0.000001 0.000005 46.710100 4.961510 8.127220 12.994500 -0.242716 -4.980390 88.442400 4.615280 -71.328500 -5.348130 -0.000001 -0.000004 -70.700200 30.024900 -3.188010 -24.328900 0.000322 -0.000009 2.275670 7.746280 -16.434100 -22.291500 -0.000108 -0.000004 1.752820 5.251530 1.392380 -2.192480 -6.469440 -0.000000 -170.053000 2.392800 -5.932040 39.081100 -0.000007 -0.000012 0.433810 -0.750625 30.026100 40.985400 -0.000006 -0.000013 -0.301278 7.193520 -77.305400 11.754300 -0.000000 0.000003 0.000215 0.163928 -9.928180 -2.192510 6.469440 -0.000001 -167.663000 6.714180 -177.799000 -39.081100 -0.002282 -0.040193 0.126733 -0.450172 15.329800 -40.985400 0.000008 0.000006 6.427690 -0.110350 -71.022400 -11.754300 -0.000006 -0.000006 -0.012305 0.287789 -4.876250
0.000000 0.000000 0.000000 0.000000 0.000000 -0.000000 -4.570490 91.666800 -0.809336 83.212100 -1.100040 2.871530 15.735700 0.000005 -0.000001 90.660800 87.558300 -87.256700 8.984550 -0.406207 -0.000000 -2.866050 -0.259250 6.802260 16.377300 -0.000001 -0.000001 10.237100 2.003310 -8.335120 6.456720 -0.000001 -0.000000 5.603460 -0.494099 -23.407000 12.994200 -0.242716 4.980390 -93.008300 8.425020 -70.267600 5.348090 -0.000007 -0.000001 -73.431700 5.926440 0.206246 24.328600 0.000019 0.000005 38.831100 -41.879200 -129.671000 22.291600 -0.000001 0.000005 46.411500 4.974050 7.865630 12.994500 -0.242716 -4.980390 88.442300 4.616810 -71.332500 -5.348130 -0.000001 -0.000004 -70.669900 29.939100 -3.220390 -24.328900 0.000322 -0.000009 2.261470 7.722510 -16.384300 -22.291500 -0.000108 -0.000004 1.726040 5.254230 1.320680 -2.192480 -6.469440 -0.000000 -170.081000 2.411190 -5.914350 39.081100 -0.000007 -0.000012 0.432662 -0.749160 30.008800 40.985400 -0.000006 -0.000013 -0.273341 7.207770 -77.299600 11.754300 -0.000000 0.000003 0.000104 0.165857 -9.849820 -2.192510 6.469440 -0.000001 -167.696000 6.721330 -177.815000 -39.081100 -0.002282 -0.040193 0.127162 -0.450763 15.361400 -40.985400 0.000008 0.000006 6.357830 -0.139355 -71.016200 -11.754300 -0.000006 -0.000006 -0.012461 0.288855 -4.832570
0.000000 0.000000 0.000000 0.000000 0.000000 -0.000000 -4.535480 91.677000 -0.837809 83.206700 -1.044600 2.845430 15.735700 0.000005 -0.000001 90.394000 87.559900 -86.972900 8.984550 -0.406207 -0.000000 -2.868290 -0.283653 6.835850 16.377300 -0.000001 -0.000001 10.261800 2.012380 -8.301020 6.456720 -0.000001 -0.000000 5.599220 -0.435902 -23.384500 12.994200 -0.242716 4.980390 -92.998700 8.377570 -70.224000 5.348090 -0.000007 -0.000001 -73.453900 5.793140 0.161210 24.328600 0.000019 0.000005 39.152400 -42.068200 -129.452000 22.291600 -0.000001 0.000005 46.489300 4.954080 8.280850 12.994500 -0.242716 -4.980390 88.442800 4.616060 -71.335800 -5.348130 -0.000001 -0.000004 -70.629500 30.063400 -3.251110 -24.328900 0.000322 -0.000009 2.245870 7.649270 -16.423900 -22.291500 -0.000108 -0.000004 1.761320 5.251860 1.383510 -2.192480 -6.469440 -0.000000 -170.099000 2.412780 -5.968350 39.081100 -0.000007 -0.000012 0.435847 -0.755214 29.991100 40.985400 -0.000006 -0.000013 -0.239628 7.242790 -77.252900 11.754300 -0.000000 0.000003 0.000224 0.163757 -9.935110 -2.192510 6.469440 -0.000001 -167.703000 6.699240 -177.879000 -39.081100 -0.002282 -0.040193 0.125758 -0.445492 15.366500 -40.985400 0.000008 0.000006 6.240890 -0.220055 -70.975300 -11.754300 -0.000006 -0.000006 -0.012339 0.288023 -4.866630
0.000000 0.000000 0.000000 0.000000 0.000000 -0.000000 -4.497830 91.681600 -0.857526 83.219000 -1.047400 2.893990 15.735700 0.000005 -0.000001 90.742000 87.533500 -87.306500 8.984550 -0.406207 -0.000000 -2.816550 -0.253126 6.865350 16.377300 -0.000001 -0.000001 10.279600 2.028710 -8.314430 6.456720 -0.000001 -0.000000 5.563350 -0.420925 -23.324500 12.994200 -0.242716 4.980390 -92.990100 8.362440 -70.243800 5.348090 -0.000007 -0.000001 -73.472800 5.652570 0.146360 24.328600 0.000019 0.000005 38.963900 -42.016100 -129.612000 22.291600 -0.000001 0.000005 46.509500 4.951140 8.341530 12.994500 -0.242716 -4.980390 88.443300 4.608840 -71.314400 -5.348130 -0.000001 -0.000004 -70.608700 30.050200 -3.298230 -24.328900 0.000322 -0.000009 2.242360 7.623250 -16.452100 -22.291500 -0.000108 -0.000004 1.775270 5.252380 1.369670 -2.192480 -6.469440 -0.000000 -170.133000 2.393660 -5.929420 39.081100 -0.000007 -0.000012 0.433732 -0.751917 29.979000 40.985400 -0.000006 -0.000013 -0.205267 7.275790 -77.222000 11.754300 -0.000000 0.000003 0.000220 0.163833 -9.932020 -2.192510 6.469440 -0.000001 -167.749000 6.701900 -177.862000 -39.081100 -0.002282 -0.040193 0.126287 -0.446297 15.403400 -40.985400 0.000008 0.000006 6.213710 -0.204069 -70.969000 -11.754300 -0.000006 -0.000006 -0.012372 0.288248 -4.857430
0.000000 0.000000 0.000000 0.000000 0.000000 -0.000000 -4.459060 91.692200 -0.890647 83.227400 -1.024720 2.908120 15.735700 0.000005 -0.000001 90.694700 87.520600 -87.243000 8.984550 -0.406207 -0.000000 -2.790490 -0.257571 6.897470 16.377300 -0.000001 -0.000001 10.263900 2.036170 -8.302590 6.456720 -0.000001 -0.000000 5.566830 -0.373766 -23.338800 12.994200 -0.242716 4.980390 -92.995400 8.370630 -70.228900 5.348090 -0.000007 -0.000001 -73.435500 5.475090 0.110031 24.328600 0.000019 0.000005 38.888900 -42.002200 -129.680000 22.291600 -0.000001 0.000005 46.621700 4.946910 8.428540 12.994500 -0.242716 -4.980390 88.440400 4.624350 -71.340300 -5.348130 -0.000001 -0.000004 -70.582100 29.965000 -3.309020 -24.328900 0.000322 -0.000009 2.232720 7.567840 -16.498000 -22.291500 -0.000108 -0.000004 1.800680 5.252320 1.371340 -2.192480 -6.469440 -0.000000 -170.172000 2.423000 -5.933520 39.081100 -0.000007 -0.000012 0.434406 -0.753764 29.956600 40.985400 -0.000006 -0.000013 -0.183759 7.267770 -77.215400 11.754300 -0.000000 0.000003 0.000180 0.164533 -9.903580 -2.192510 6.469440 -0.000001 -167.783000 6.742880 -177.866000 -39.081100 -0.002282 -0.040193 0.126234 -0.446583 15.387600 -40.985400 0.000008 0.000006 6.201380 -0.216111 -70.980300 -11.754300 -0.000006 -0.000006 -0.012532 0.289343 -4.812550
